<svg xmlns="http://www.w3.org/2000/svg" viewBox="0 0 1024 1024" width="64" height="64"><path d="M526.222 227.556v568.89h-8.533A287.289 287.289 0 0 1 227.556 512a287.289 287.289 0 0 1 290.133-284.444z" fill="#d8d8d8"/><path d="M540.444 773.69a263.111 263.111 0 0 0 0-523.378zm-42.667-524.8a263.111 263.111 0 0 0 0 524.8zM512 817.778A305.778 305.778 0 1 1 817.778 512 305.778 305.778 0 0 1 512 817.778zm0-760.89a25.6 25.6 0 0 1 25.6 25.6v85.333a25.6 25.6 0 0 1-51.2 0V82.49a25.6 25.6 0 0 1 25.6-25.6zm321.422 133.69a25.6 25.6 0 0 1 0 36.978l-61.156 61.156a25.6 25.6 0 0 1-36.978-36.978l61.156-61.156a25.6 25.6 0 0 1 36.978 0zM967.11 512a25.6 25.6 0 0 1-25.6 25.6h-85.333a25.6 25.6 0 1 1 0-51.2h85.333a25.6 25.6 0 0 1 25.6 25.6zm-133.69 321.422a25.6 25.6 0 0 1-36.978 0l-61.156-61.156a25.6 25.6 0 0 1 36.978-36.978l61.156 61.156a25.6 25.6 0 0 1 0 36.978zM512 967.11a25.6 25.6 0 0 1-25.6-25.6v-85.333a25.6 25.6 0 1 1 51.2 0v85.333a25.6 25.6 0 0 1-25.6 25.6zm-321.422-133.69a25.6 25.6 0 0 1 0-36.978l61.156-61.156a25.6 25.6 0 0 1 36.978 36.978l-61.156 61.156a25.6 25.6 0 0 1-36.978 0zM56.89 512a25.6 25.6 0 0 1 25.6-25.6h85.333a25.6 25.6 0 0 1 0 51.2H82.49a25.6 25.6 0 0 1-25.6-25.6zm133.69-321.422a25.6 25.6 0 0 1 36.978 0l61.156 61.156a25.6 25.6 0 0 1-36.978 36.978l-61.156-61.156a25.6 25.6 0 0 1 0-36.978z" fill="#333"/></svg>